<mxfile host="app.diagrams.net" modified="2023-09-17T20:19:44.202Z" agent="Mozilla/5.0 (Macintosh; Intel Mac OS X 10_15_7) AppleWebKit/537.36 (KHTML, like Gecko) Chrome/116.0.0.0 Safari/537.36" version="21.7.5" etag="WP9K2ze13sm5LoY1se3d" type="github">
  <diagram name="Page-1" id="_lqDyxtmHLjizQyb4mXX">
    <mxGraphModel>
      <root>
        <mxCell id="0" />
        <mxCell id="1" parent="0" />
      </root>
    </mxGraphModel>
  </diagram>
</mxfile>
